<mxfile host="65bd71144e">
    <diagram id="X_cLAnfIPZa7-C0qrAT2" name="페이지-1">
        <mxGraphModel dx="1713" dy="726" grid="1" gridSize="10" guides="1" tooltips="1" connect="1" arrows="1" fold="1" page="1" pageScale="1" pageWidth="827" pageHeight="1169" math="0" shadow="0">
            <root>
                <mxCell id="0"/>
                <mxCell id="1" parent="0"/>
                <mxCell id="2" value="" style="image;html=1;image=img/lib/clip_art/computers/iMac_128x128.png" vertex="1" parent="1">
                    <mxGeometry x="150" y="180" width="80" height="80" as="geometry"/>
                </mxCell>
                <mxCell id="3" style="edgeStyle=none;html=1;exitX=1;exitY=0.5;exitDx=0;exitDy=0;entryX=0;entryY=0.5;entryDx=0;entryDy=0;fillColor=#0050ef;strokeColor=#001DBC;strokeWidth=3;endArrow=open;endFill=0;startArrow=open;startFill=0;" edge="1" parent="1" source="4" target="49">
                    <mxGeometry relative="1" as="geometry">
                        <mxPoint x="380" y="300" as="targetPoint"/>
                    </mxGeometry>
                </mxCell>
                <mxCell id="4" value="&lt;font style=&quot;font-size: 35px&quot;&gt;client&lt;/font&gt;" style="rounded=1;whiteSpace=wrap;html=1;fontFamily=빙그레 싸만코체;fontSource=https%3A%2F%2Fcdn.jsdelivr.net%2Fgh%2Fprojectnoonnu%2Fnoonfonts_20-10%401.0%2FBinggraeSamanco-Bold.woff;fontStyle=1;fontSize=30;align=center;strokeWidth=3;fillColor=none;fontColor=#000000;strokeColor=#BD7000;" vertex="1" parent="1">
                    <mxGeometry x="120" y="270" width="150" height="60" as="geometry"/>
                </mxCell>
                <mxCell id="5" style="edgeStyle=none;html=1;exitX=1;exitY=0.5;exitDx=0;exitDy=0;entryX=0;entryY=0.5;entryDx=0;entryDy=0;startArrow=open;startFill=0;endArrow=open;endFill=0;strokeWidth=3;fillColor=#0050ef;strokeColor=#001DBC;" edge="1" parent="1" source="49" target="11">
                    <mxGeometry relative="1" as="geometry">
                        <mxPoint x="641" y="300" as="sourcePoint"/>
                    </mxGeometry>
                </mxCell>
                <mxCell id="6" style="edgeStyle=none;html=1;exitX=1;exitY=0.5;exitDx=0;exitDy=0;entryX=0;entryY=0.5;entryDx=0;entryDy=0;startArrow=open;startFill=0;endArrow=open;endFill=0;strokeWidth=3;fillColor=#0050ef;strokeColor=#001DBC;" edge="1" parent="1" source="49" target="9">
                    <mxGeometry relative="1" as="geometry">
                        <mxPoint x="641" y="300" as="sourcePoint"/>
                    </mxGeometry>
                </mxCell>
                <mxCell id="8" value="" style="image;html=1;image=img/lib/clip_art/computers/Server_Tower_128x128.png;fontFamily=빙그레 싸만코체;fontSource=https%3A%2F%2Fcdn.jsdelivr.net%2Fgh%2Fprojectnoonnu%2Fnoonfonts_20-10%401.0%2FBinggraeSamanco-Bold.woff;fontSize=35;strokeWidth=3;fillColor=none;" vertex="1" parent="1">
                    <mxGeometry x="770" y="305" width="80" height="80" as="geometry"/>
                </mxCell>
                <mxCell id="9" value="Second Service" style="rounded=0;whiteSpace=wrap;html=1;fontFamily=빙그레 싸만코체;fontSource=https%3A%2F%2Fcdn.jsdelivr.net%2Fgh%2Fprojectnoonnu%2Fnoonfonts_20-10%401.0%2FBinggraeSamanco-Bold.woff;fontSize=20;strokeWidth=3;fillColor=#60a917;fontColor=#ffffff;strokeColor=#2D7600;" vertex="1" parent="1">
                    <mxGeometry x="750" y="355" width="120" height="60" as="geometry"/>
                </mxCell>
                <mxCell id="10" value="" style="image;html=1;image=img/lib/clip_art/computers/Server_Tower_128x128.png;fontFamily=빙그레 싸만코체;fontSource=https%3A%2F%2Fcdn.jsdelivr.net%2Fgh%2Fprojectnoonnu%2Fnoonfonts_20-10%401.0%2FBinggraeSamanco-Bold.woff;fontSize=35;strokeWidth=3;fillColor=none;" vertex="1" parent="1">
                    <mxGeometry x="770" y="170" width="80" height="80" as="geometry"/>
                </mxCell>
                <mxCell id="11" value="First Service" style="rounded=0;whiteSpace=wrap;html=1;fontFamily=빙그레 싸만코체;fontSource=https%3A%2F%2Fcdn.jsdelivr.net%2Fgh%2Fprojectnoonnu%2Fnoonfonts_20-10%401.0%2FBinggraeSamanco-Bold.woff;fontSize=20;strokeWidth=3;fillColor=#60a917;fontColor=#ffffff;strokeColor=#2D7600;" vertex="1" parent="1">
                    <mxGeometry x="750" y="230" width="120" height="60" as="geometry"/>
                </mxCell>
                <mxCell id="12" value="" style="rounded=0;whiteSpace=wrap;html=1;" vertex="1" parent="1">
                    <mxGeometry x="-120" y="260" width="120" height="60" as="geometry"/>
                </mxCell>
                <mxCell id="13" value="" style="rounded=0;whiteSpace=wrap;html=1;" vertex="1" parent="1">
                    <mxGeometry x="460" y="10" width="120" height="60" as="geometry"/>
                </mxCell>
                <mxCell id="15" value="" style="html=1;shadow=0;dashed=0;align=center;verticalAlign=middle;shape=mxgraph.arrows2.jumpInArrow;dy=15;dx=38;arrowHead=55;rotation=-210;strokeWidth=3;fillColor=#ffcc99;strokeColor=#36393d;" vertex="1" parent="1">
                    <mxGeometry x="470" y="450" width="100" height="100" as="geometry"/>
                </mxCell>
                <mxCell id="16" value="Spring Cloud Gateway" style="text;html=1;strokeColor=none;fillColor=none;align=center;verticalAlign=middle;whiteSpace=wrap;rounded=0;fontFamily=빙그레 싸만코체;fontSource=https%3A%2F%2Fcdn.jsdelivr.net%2Fgh%2Fprojectnoonnu%2Fnoonfonts_20-10%401.0%2FBinggraeSamanco-Bold.woff;fontSize=35;" vertex="1" parent="1">
                    <mxGeometry x="345" y="396.5" width="330" height="30" as="geometry"/>
                </mxCell>
                <mxCell id="18" value="" style="rounded=0;whiteSpace=wrap;html=1;fontFamily=빙그레 싸만코체;fontSource=https%3A%2F%2Fcdn.jsdelivr.net%2Fgh%2Fprojectnoonnu%2Fnoonfonts_20-10%401.0%2FBinggraeSamanco-Bold.woff;fontSize=35;strokeWidth=3;dashed=1;" vertex="1" parent="1">
                    <mxGeometry x="90" y="580" width="900" height="410" as="geometry"/>
                </mxCell>
                <mxCell id="19" value="Predicate" style="rounded=1;whiteSpace=wrap;html=1;fontFamily=빙그레 싸만코체;fontSource=https%3A%2F%2Fcdn.jsdelivr.net%2Fgh%2Fprojectnoonnu%2Fnoonfonts_20-10%401.0%2FBinggraeSamanco-Bold.woff;fontSize=35;strokeWidth=3;" vertex="1" parent="1">
                    <mxGeometry x="380" y="610" width="160" height="110" as="geometry"/>
                </mxCell>
                <mxCell id="20" value="Gateway&lt;br&gt;Handler&lt;br&gt;Mapping" style="rounded=1;whiteSpace=wrap;html=1;fontFamily=빙그레 싸만코체;fontSource=https%3A%2F%2Fcdn.jsdelivr.net%2Fgh%2Fprojectnoonnu%2Fnoonfonts_20-10%401.0%2FBinggraeSamanco-Bold.woff;fontSize=35;strokeWidth=3;" vertex="1" parent="1">
                    <mxGeometry x="130" y="740" width="180" height="130" as="geometry"/>
                </mxCell>
                <mxCell id="27" value="Pre Filter" style="text;html=1;strokeColor=none;fillColor=none;align=center;verticalAlign=middle;whiteSpace=wrap;rounded=0;fontFamily=빙그레 싸만코체;fontSource=https%3A%2F%2Fcdn.jsdelivr.net%2Fgh%2Fprojectnoonnu%2Fnoonfonts_20-10%401.0%2FBinggraeSamanco-Bold.woff;fontSize=35;" vertex="1" parent="1">
                    <mxGeometry x="675" y="620" width="120" height="30" as="geometry"/>
                </mxCell>
                <mxCell id="28" value="Post Filter" style="text;html=1;strokeColor=none;fillColor=none;align=center;verticalAlign=middle;whiteSpace=wrap;rounded=0;fontFamily=빙그레 싸만코체;fontSource=https%3A%2F%2Fcdn.jsdelivr.net%2Fgh%2Fprojectnoonnu%2Fnoonfonts_20-10%401.0%2FBinggraeSamanco-Bold.woff;fontSize=35;" vertex="1" parent="1">
                    <mxGeometry x="670" y="940" width="140" height="30" as="geometry"/>
                </mxCell>
                <mxCell id="29" value="&lt;ul&gt;&lt;li&gt;Property&lt;/li&gt;&lt;li&gt;Java Code&lt;/li&gt;&lt;/ul&gt;" style="text;strokeColor=none;fillColor=none;html=1;whiteSpace=wrap;verticalAlign=middle;overflow=hidden;fontFamily=빙그레 싸만코체;fontSource=https%3A%2F%2Fcdn.jsdelivr.net%2Fgh%2Fprojectnoonnu%2Fnoonfonts_20-10%401.0%2FBinggraeSamanco-Bold.woff;fontSize=35;" vertex="1" parent="1">
                    <mxGeometry x="810" y="710" width="169.6" height="160" as="geometry"/>
                </mxCell>
                <mxCell id="30" value="" style="shape=flexArrow;endArrow=classic;html=1;fontFamily=빙그레 싸만코체;fontSource=https%3A%2F%2Fcdn.jsdelivr.net%2Fgh%2Fprojectnoonnu%2Fnoonfonts_20-10%401.0%2FBinggraeSamanco-Bold.woff;fontSize=35;fillColor=#cce5ff;strokeColor=none;strokeWidth=3;" edge="1" parent="1">
                    <mxGeometry width="50" height="50" relative="1" as="geometry">
                        <mxPoint x="150" y="910" as="sourcePoint"/>
                        <mxPoint x="220" y="910" as="targetPoint"/>
                    </mxGeometry>
                </mxCell>
                <mxCell id="31" value="" style="shape=flexArrow;endArrow=classic;html=1;fontFamily=빙그레 싸만코체;fontSource=https%3A%2F%2Fcdn.jsdelivr.net%2Fgh%2Fprojectnoonnu%2Fnoonfonts_20-10%401.0%2FBinggraeSamanco-Bold.woff;fontSize=35;fillColor=#ffcccc;strokeColor=none;strokeWidth=3;" edge="1" parent="1">
                    <mxGeometry width="50" height="50" relative="1" as="geometry">
                        <mxPoint x="220" y="950" as="sourcePoint"/>
                        <mxPoint x="150" y="950" as="targetPoint"/>
                    </mxGeometry>
                </mxCell>
                <mxCell id="32" value="" style="sketch=0;pointerEvents=1;shadow=0;dashed=0;html=1;strokeColor=#36393d;fillColor=#cce5ff;labelPosition=center;verticalLabelPosition=bottom;verticalAlign=top;outlineConnect=0;align=center;shape=mxgraph.office.concepts.input_output_filter;fontFamily=빙그레 싸만코체;fontSource=https%3A%2F%2Fcdn.jsdelivr.net%2Fgh%2Fprojectnoonnu%2Fnoonfonts_20-10%401.0%2FBinggraeSamanco-Bold.woff;fontSize=35;" vertex="1" parent="1">
                    <mxGeometry x="690" y="664" width="100" height="106" as="geometry"/>
                </mxCell>
                <mxCell id="34" value="" style="sketch=0;pointerEvents=1;shadow=0;dashed=0;html=1;strokeColor=#36393d;fillColor=#ffcccc;labelPosition=center;verticalLabelPosition=bottom;verticalAlign=top;outlineConnect=0;align=center;shape=mxgraph.office.concepts.input_output_filter;fontFamily=빙그레 싸만코체;fontSource=https%3A%2F%2Fcdn.jsdelivr.net%2Fgh%2Fprojectnoonnu%2Fnoonfonts_20-10%401.0%2FBinggraeSamanco-Bold.woff;fontSize=35;" vertex="1" parent="1">
                    <mxGeometry x="690" y="820" width="100" height="106" as="geometry"/>
                </mxCell>
                <mxCell id="35" value="Request" style="text;html=1;strokeColor=none;fillColor=none;align=center;verticalAlign=middle;whiteSpace=wrap;rounded=0;fontFamily=빙그레 싸만코체;fontSource=https%3A%2F%2Fcdn.jsdelivr.net%2Fgh%2Fprojectnoonnu%2Fnoonfonts_20-10%401.0%2FBinggraeSamanco-Bold.woff;fontSize=25;" vertex="1" parent="1">
                    <mxGeometry x="230" y="895" width="70" height="30" as="geometry"/>
                </mxCell>
                <mxCell id="36" value="Response" style="text;html=1;strokeColor=none;fillColor=none;align=center;verticalAlign=middle;whiteSpace=wrap;rounded=0;fontFamily=빙그레 싸만코체;fontSource=https%3A%2F%2Fcdn.jsdelivr.net%2Fgh%2Fprojectnoonnu%2Fnoonfonts_20-10%401.0%2FBinggraeSamanco-Bold.woff;fontSize=25;" vertex="1" parent="1">
                    <mxGeometry x="230" y="936" width="70" height="30" as="geometry"/>
                </mxCell>
                <mxCell id="37" value="" style="shape=flexArrow;endArrow=classic;html=1;fontFamily=빙그레 싸만코체;fontSource=https%3A%2F%2Fcdn.jsdelivr.net%2Fgh%2Fprojectnoonnu%2Fnoonfonts_20-10%401.0%2FBinggraeSamanco-Bold.woff;fontSize=35;fillColor=#cce5ff;strokeColor=none;strokeWidth=3;entryX=0.022;entryY=0.547;entryDx=0;entryDy=0;entryPerimeter=0;" edge="1" parent="1">
                    <mxGeometry width="50" height="50" relative="1" as="geometry">
                        <mxPoint x="10.2" y="789.41" as="sourcePoint"/>
                        <mxPoint x="129.99999999999994" y="789.68" as="targetPoint"/>
                    </mxGeometry>
                </mxCell>
                <mxCell id="38" value="" style="curved=1;endArrow=classic;html=1;fontFamily=빙그레 싸만코체;fontSource=https%3A%2F%2Fcdn.jsdelivr.net%2Fgh%2Fprojectnoonnu%2Fnoonfonts_20-10%401.0%2FBinggraeSamanco-Bold.woff;fontSize=25;strokeWidth=10;entryX=0;entryY=0.5;entryDx=0;entryDy=0;exitX=1;exitY=0.5;exitDx=0;exitDy=0;fillColor=#cce5ff;strokeColor=#CCE5FF;" edge="1" parent="1" source="20" target="19">
                    <mxGeometry width="50" height="50" relative="1" as="geometry">
                        <mxPoint x="250" y="680" as="sourcePoint"/>
                        <mxPoint x="300" y="630" as="targetPoint"/>
                        <Array as="points">
                            <mxPoint x="370" y="760"/>
                            <mxPoint x="310" y="665"/>
                        </Array>
                    </mxGeometry>
                </mxCell>
                <mxCell id="40" value="" style="curved=1;endArrow=classic;html=1;fontFamily=빙그레 싸만코체;fontSource=https%3A%2F%2Fcdn.jsdelivr.net%2Fgh%2Fprojectnoonnu%2Fnoonfonts_20-10%401.0%2FBinggraeSamanco-Bold.woff;fontSize=25;strokeWidth=10;exitX=1;exitY=0.5;exitDx=0;exitDy=0;fillColor=#cce5ff;strokeColor=#CCE5FF;" edge="1" parent="1" source="19" target="32">
                    <mxGeometry width="50" height="50" relative="1" as="geometry">
                        <mxPoint x="560" y="850" as="sourcePoint"/>
                        <mxPoint x="630" y="710" as="targetPoint"/>
                        <Array as="points">
                            <mxPoint x="590" y="640"/>
                            <mxPoint x="610" y="690"/>
                            <mxPoint x="610" y="770"/>
                        </Array>
                    </mxGeometry>
                </mxCell>
                <mxCell id="42" value="" style="shape=flexArrow;endArrow=classic;html=1;fontFamily=빙그레 싸만코체;fontSource=https%3A%2F%2Fcdn.jsdelivr.net%2Fgh%2Fprojectnoonnu%2Fnoonfonts_20-10%401.0%2FBinggraeSamanco-Bold.woff;fontSize=35;fillColor=#ffcccc;strokeColor=none;strokeWidth=3;" edge="1" parent="1">
                    <mxGeometry width="50" height="50" relative="1" as="geometry">
                        <mxPoint x="1050" y="880" as="sourcePoint"/>
                        <mxPoint x="810" y="880" as="targetPoint"/>
                    </mxGeometry>
                </mxCell>
                <mxCell id="43" value="" style="shape=flexArrow;endArrow=classic;html=1;fontFamily=빙그레 싸만코체;fontSource=https%3A%2F%2Fcdn.jsdelivr.net%2Fgh%2Fprojectnoonnu%2Fnoonfonts_20-10%401.0%2FBinggraeSamanco-Bold.woff;fontSize=35;fillColor=#ffcccc;strokeColor=none;strokeWidth=3;" edge="1" parent="1">
                    <mxGeometry width="50" height="50" relative="1" as="geometry">
                        <mxPoint x="120" y="830" as="sourcePoint"/>
                        <mxPoint x="10" y="829" as="targetPoint"/>
                    </mxGeometry>
                </mxCell>
                <mxCell id="45" value="" style="curved=1;endArrow=none;html=1;fontFamily=빙그레 싸만코체;fontSource=https%3A%2F%2Fcdn.jsdelivr.net%2Fgh%2Fprojectnoonnu%2Fnoonfonts_20-10%401.0%2FBinggraeSamanco-Bold.woff;fontSize=25;strokeWidth=10;exitX=0.5;exitY=1;exitDx=0;exitDy=0;fillColor=#cce5ff;strokeColor=#FFCCCC;startArrow=classic;startFill=1;endFill=0;" edge="1" parent="1" source="20">
                    <mxGeometry width="50" height="50" relative="1" as="geometry">
                        <mxPoint x="540" y="805" as="sourcePoint"/>
                        <mxPoint x="690" y="877.3846153846155" as="targetPoint"/>
                        <Array as="points">
                            <mxPoint x="490" y="930"/>
                            <mxPoint x="570" y="930"/>
                            <mxPoint x="610" y="910"/>
                        </Array>
                    </mxGeometry>
                </mxCell>
                <mxCell id="48" value="" style="shape=flexArrow;endArrow=classic;html=1;fontFamily=빙그레 싸만코체;fontSource=https%3A%2F%2Fcdn.jsdelivr.net%2Fgh%2Fprojectnoonnu%2Fnoonfonts_20-10%401.0%2FBinggraeSamanco-Bold.woff;fontSize=35;fillColor=#cce5ff;strokeColor=none;strokeWidth=3;" edge="1" parent="1">
                    <mxGeometry width="50" height="50" relative="1" as="geometry">
                        <mxPoint x="809.9999999999995" y="710.8199999999999" as="sourcePoint"/>
                        <mxPoint x="1050" y="709" as="targetPoint"/>
                    </mxGeometry>
                </mxCell>
                <mxCell id="49" value="" style="shape=image;imageAspect=0;aspect=fixed;verticalLabelPosition=bottom;verticalAlign=top;fontFamily=빙그레 싸만코체;fontSource=https%3A%2F%2Fcdn.jsdelivr.net%2Fgh%2Fprojectnoonnu%2Fnoonfonts_20-10%401.0%2FBinggraeSamanco-Bold.woff;fontSize=25;strokeWidth=3;image=data:image/jpeg,/9j/4AAQSkZJRgABAQAAAQABAAD/4gKgSUNDX1BST0ZJTEUAAQEAAAKQbGNtcwQwAABtbnRyUkdCIFhZWiAH4QABAB4AFQAYABJhY3NwQVBQTAAAAAAAAAAAAAAAAAAAAAAAAAAAAAAAAAAA9tYAAQAAAADTLWxjbXMAAAAAAAAAAAAAAAAAAAAAAAAAAAAAAAAAAAAAAAAAAAAAAAAAAAAAAAAAAAAAAAtkZXNjAAABCAAAADhjcHJ0AAABQAAAAE53dHB0AAABkAAAABRjaGFkAAABpAAAACxyWFlaAAAB0AAAABRiWFlaAAAB5AAAABRnWFlaAAAB+AAAABRyVFJDAAACDAAAACBnVFJDAAACLAAAACBiVFJDAAACTAAAACBjaHJtAAACbAAAACRtbHVjAAAAAAAAAAEAAAAMZW5VUwAAABwAAAAcAHMAUgBHAEIAIABiAHUAaQBsAHQALQBpAG4AAG1sdWMAAAAAAAAAAQAAAAxlblVTAAAAMgAAABwATgBvACAAYwBvAHAAeQByAGkAZwBoAHQALAAgAHUAcwBlACAAZgByAGUAZQBsAHkAAAAAWFlaIAAAAAAAAPbWAAEAAAAA0y1zZjMyAAAAAAABDEoAAAXj///zKgAAB5sAAP2H///7ov///aMAAAPYAADAlFhZWiAAAAAAAABvlAAAOO4AAAOQWFlaIAAAAAAAACSdAAAPgwAAtr5YWVogAAAAAAAAYqUAALeQAAAY3nBhcmEAAAAAAAMAAAACZmYAAPKnAAANWQAAE9AAAApbcGFyYQAAAAAAAwAAAAJmZgAA8qcAAA1ZAAAT0AAACltwYXJhAAAAAAADAAAAAmZmAADypwAADVkAABPQAAAKW2Nocm0AAAAAAAMAAAAAo9cAAFR7AABMzQAAmZoAACZmAAAPXP/bAEMABQMEBAQDBQQEBAUFBQYHDAgHBwcHDwsLCQwRDxISEQ8RERMWHBcTFBoVEREYIRgaHR0fHx8TFyIkIh4kHB4fHv/bAEMBBQUFBwYHDggIDh4UERQeHh4eHh4eHh4eHh4eHh4eHh4eHh4eHh4eHh4eHh4eHh4eHh4eHh4eHh4eHh4eHh4eHv/CABEIAZABkAMBIgACEQEDEQH/xAAbAAEAAgMBAQAAAAAAAAAAAAAABgcDBAUCAf/EABoBAQADAQEBAAAAAAAAAAAAAAACAwQFAQb/2gAMAwEAAhADEAAAAblAAAAAAAAAAAAAAAAAAAAAAAAAAAAAAAAAAAAAAAAAAAAAAAAAAAAAAAAAAAAAAAAAAAAAAAAAAAAAAAAAAAAAAAAAAAAAAAAAAAAAAAAAAAAAAAAAAAAAAAAAAAAAAAAAAAAAAAYeFVCRoHzctVmYqv8AlULSy1R69WsrXp2zm7hdvVd6FkgAAAAAAAAAAAAAAABHa49qJ8DFysfvwY6AAAAGfA9S6T1VubtFmOV1epsa+xX9NdgMWW+wPfQAAAAAAAAAAHz7B6a8kbOJgCuIAAAAAAHqZwr7dOdx9ON+nid+Eza+wNNoAAAAAAAAAA58fOJEvXng84KoAAAAAAAAN/NPNl/3MdjbCJtHOlkp6Q2XgAAAAAAADjwj2PMF4+KixsFeKa5/qwpDySR/306ocVu6VMA88AAAAMsgslHZVIdrpa/n036ANHiyiE46JsNl4AAAAAADWwQDJTv8c4+EI+AAAfXz6fHakGm2C5rK2NNta5LGWSr/ADzlKUT6fZWz8ey+wPQB59eEIm8My0TNxe1otCcgAAAAGrtV/nq5+ucPnh4AAAHQl7jnG7n7G4NdwAAAAADBnjtUOxtFkkWlMdorhO/oOJgsTqVTM+prkY36QAAAONAO1xeHzwzVAAAAZLJjst62wN+kAAAAAAYfPNTmcKfY6fY23uD3o9RXCBwec+/BO+7Vtl9jdnG28AB59c6Pld+D5zlgAAADY9WJuH0XUCXoAAAAAw+eeoA3uZk7PcOjqCckXlEJy0x0cTAAlMW2bZ2ePoOkAA4/Y49UK/Hz/NAAAAb+htT9s4fRdQAAAAA8xaqHbgmr0uVj+2B5ydLUGi0BWk6rjmZA5uUACy93kdf6HphZIBo73yPlUMuL5zlgAAAAWbtw6Y97ohfYAPHj243EoqmUfiGDDRuaeWX56uROPbr7QvsAHGhGPcH784HOCEQALA7HP6H0PSCyYAEHj9jV1xcHwZKQAAAPs2hP26drYq21tuiwOVE2errczx7z1+Ha7ls4bIJfl3X62ybtAe+gHiMVQ68A8eOPhDPWAAy4pDZKbfT6HpgAAIRN8dNdVuhz+Fzwj4AABYPT8Z/oenXHO7nD4fPy9njY/PJx2KuarrX+1P6slayq/XvtpKtxlpataoRnXIjimvNhM1QeAAAPVkcKV9bYG/SAAABggFjeM1VVJRGePh8iuIAG9u8RZL78K4gAAAAAAAAADIY5Hvybpag6esAAAAABq7TzyJcWx2SmqfNr4aK6uWg88q9aAq9aAq9aAq9aAq9aAq9aAq9aAq9aAq9aAq9aAq9aH0rDesf7OUTkmw13hdMAAAAAAAAAAAAAAAAAAAAAAAAAAAAAAAAAAAAAAAAAAAAAAAAAAAAAAAAAAAAAAAAAAAAAAAAAAAAAAAAAAAAAAAAAAAAAAAAAAAAAAAAAAAAAAAAAAAAAAAAAAAAAAAD/xAAsEAACAgICAQMDAgcBAAAAAAACAwEEAAUTMCAQEkARFCEiNAYVIyU1UJAx/9oACAEBAAEFAv8AgZJRGS5MZDVTkfn/AFbWrVDtsocbtLRYdh5+ETMYu3ZDFbZ44jaVzwSEo/0j3qQNrasPCIjLqS5iSqbaMAhMfVrgWXzb+yFWMYbD7q1htcqN1dmPTZWZbcScMV8qZiI2WwlnwomYnW7Dlzb2eFMUp/lmjb76vytpe5p+JQQy7YMIJeoKU3/k7m58WlWOyxKgSvNnH2+zj8x8fYPlFefr9fh0aTLJIUCV+m+X9UaxnJR+KUwMHcqjn8xp4V2geEnWPx+qZEGBAXcAkZUtXkRER67AOSnoD/R8O1sa6cfs7LMMyOfBbWLn76WCxQTHWtZsmtqmFleulEeWr/o7P4Nh664Xb7bHeK2FkVLM5FG3ka25g6qzOBp8VrKoYAiEdFv+jufgXrQVV2HMezsra2w3E6uuGLQlfcM/X134/SxW2VdmR+e604K6bDje3rq122Tp0U1/gWGQlNSJGv6fxBH6cq23V5pXVWe3aWfuH9dGqdpqFAlfwLp/c3fXf/tfSJmJ1mw5evbv4avWsCYdRA10/A2FmKyNImfb6739l4aq5zh07hvJc69Cj8/AcwErmWbC6AwAeu+/aeCWEptdouT5mXtApki66S+Kr3sMVhsLZWmairwJ8P4gn9HjoXfQ/PZF7aPXWH32O9zQSu/cO0Wnp8h+O+P62vGszisee5/Ydev/AHvdctqrDasssnrqk2WCMCPjeZy2/KiXvp+W4/x/XVL2WewigRu7TCKSKhTOyagFYeOxdwVPPTz/AG/y2A+6l2U281bpIhGLO1UGWbLrE5r9eT8ABAPLc2OV/npv8f5TH1hoStvXo7PtPyMxCHbKqvH7ZxY1rGziwNhUdYIdG0t/bq6NcPso+e8V7LXXH4zXbAWxhsWvGbKoGN3GN2No8IiKfQBIyq6phYhCkD53rgVgawms81BLGDECPnsUfcVeyYmM+4f7P/fARIpTrbTMRqUjilrUPmZiA3NrGEUkXRo0++x07mrxt6tdTBCmADB2Ff7aziwNhJ1jyxOtqBgQpcRMT5EYDh3Ko4za1hx22cWNaxs9MRMzRR9vW6WgLF3qxVm9KGC5ObpsMuZBnEeETMZ7zjORmcjMmZnv01TssJB67tRlY+itadXx2zssH5OsoS2e0xExu6sowokZ+eAEZUdZAfBsV0vh+oxtK0vJiYn5MRM4qlaZlfUYhCkj8SYiclKpzgTnAnOBOcCc4E5wJzgTnAnOBOcCc4E5wJzgTnAnOBOcCc4E5wJzgTnAnOBOcCc4E5wpyIiP+AH/xAAoEQACAQIEBgIDAQAAAAAAAAABAgADERIUIDEEECEwUWEyQRMicED/2gAIAQMBAT8B/g7Oq7w8Qv1Mz6mZ9QcQsDBtv8TMFHWPXJ21pXI+UBB6iVHwDvO4QRmLG57KOUMC/l/Yyibr3CbC8dyxv2qVHF1PJOjkdosBvG4gfUzLT899xDgPqEW1KhbaJQA35v0cHs1auDpCxbfUtFmg4b3MsJl1gpIPrTX+N4GDba6r4BqAv0lOiF7DtYQdJW+BgNtpSrX6HVWbE2qglhi7KH8jYvrlV+B50amIWOgmwvrAt2Hc1DhWKuEW5Vz+nOm2Fr6KnxOpd9bOF3jO1Q2Ep08A58S31oTqo5kXGum2JdDVlEbiCdoqNUMSmE5s2EXMZsRvoT4jRXWzakcptDxPqGu5hYneLRYxeHA3m3NnC7ypUL6EXEbaaiYxaEW6aVAt0j2DG0BX7grBdhMz6mZ9TM+pmT4hrOdVCnb9jqqUg8ZCu+gOwFu7Sofbdgi8agpmW9zLHzMsfMyx8zLHzMsfMyx8zLHzMsfMyx8zLHzMsfMyx8wcMPsxaart/Av/xAAvEQABAwIDBwMDBQEAAAAAAAABAAIDBBESIFEQFSEwMTJBBRMiM2FiQEJScIFx/9oACAECAQE/Af6HfMxncU6vYOgW8D/FD1D8U2vjPVMka/tP6KSRsYu5TVj38G8MwNuihrXN4PTXh4uFUTe026BvzZphE25UkjpDd3JhmdEbhNYam7z08Kkdij/5zHODRcqWUyOueVTUpk4u6ICyi+Ezm/7ynvawXcn17R2hGvfojWF3c0I+0/pwRFszInydoUNEG8X8ds3xmY7/ADk1FUIuA6p73PN3Zo6WR/hD0/Urd7NUKGNNpom+MtZ2X0TJGv7TnqJvab90TficrWlxsFBStj4nryJX4WoCwsqoXiKa4tNwqesx/F/XNVyY5M1FDhbjPIJsoj78mPwNlT9I7aOf3BhPXI84Wk5gLmyaLC2cmylmNQ722dFGwMbhGysNojthk9t4OSf6bszODhnkmbGPkpJn1BwhU8AiH3217+jckRuwHa4YhZdM1PJ7jAcj6qJnlSVzj2KOJ85UMDYhw2veGNxFSPL3YjkhFoxkrI8El9c0MzojcI+oaBOrZSnPc/qUyllf4UdC0d3FAAcBtkmZGPkp6gyn7ZImY3huWeEStsnNLTY5WNaG2HRTAB5ATSwdRdMrGs7WLeH4reA/it4fij6g7wE6rld5RN8tFBhGM5p6dso+6kidGbOyCV4FgebT0f7n8ggHgU+ijd04I+n6OW7zqt3nVbvOq3edVu86rd51W7zqt3nVbvOq3edVu86rd51TfTx5KjgZH2j+gv/EADgQAAECAgUICQQCAwEAAAAAAAEAAgMREiEwUWEgIjEyM0BBkgQQEyNSYnFygUKRobFQwRSQooL/2gAIAQEABj8C/wBBlZAVcVnMqorOZVfxc4jw31XdMc/8LNLWegWdGefnIqMlmxn/AHWe1r/wpPnDOKpNcCMP4WlFeApQBQF/FUnEk42dKG8tKo9IbLzBUmODhhkQ2u0vMhvxhwJOffwCpxHFxt5w3eo4FS1Ynh66TDVD1U2IPqE97magjCgGTOJv3KYMihCjVP4G9dm057/wEekEZ05j0VDiw732UI92NPm3WnFJc1uknjgiw6CJJ0F3GY+RvX+NDPvP9brRbUOJuQhsEgOoRRxk5TG8FzRN5qCr07pPVh8XIMhiQ62RPCZKGbhLdpuIAVcdnwZrbf8AJUnPa71YVmvY0+V0lSgPEQXKi9pacbei0Em4IP6TyKQEhkRW+WaiQ7jPdJA9o65qzSIYwU3uLjicnu3ub6FUOlQ2xm36CqcB9Jtx1haSY0uOCnHdQFw0qUJgGOW6F6t3KnEdL+1RGZDuFvmscfQLYROVbFy2Uv8A0FWYY+VnxvsFW0v9xUmtDRhYh3CkDuMzW46rVTiGZtZkdm3zLPpRDisyExvxbHAy62OvagHOoO81uYj/AIxRiPNZtKMMep4BTlSf4juDojvpCZS1jWfU9cJ2J6sx2b4ToUtV/hNrJp7ttQtKIqaNYoQ4YkBuMPobdUGcTIYfP/XXMGRQgxtfgb7OiNZ9VoGNEyUIbfk37jS+s6oTukv1n6Mge8ZPZxD3jfzZFvBlVo7pB4VN3ExHmQCA0T/5CDG6BVkN9+S2IzSE2I3QbAuPATRcdJM7SGzCvcC95k0K6GNAVN47x/4GTCbiTlOgHjWLCKcJWkNl7gNwL4jpAK6GNAXbxBmDRicprPC3KZE8JsH+otIPut84zdwaqUQ+guVdUMaSg1okBlRH8J1ZcJ3ly3/H7tITrnC1pOIAxVDo3OVScSSeKuhjS5BjBJoynu4moWDPn95cUeWdqyJeK7Kk4gC8qUEdob+CnEfPDh1U4mbD/aDGCQHDL7NpzWfuwZ8/vLkU5h+kytD0dxqdq+uXN7g0YqpxefKu6YGfkqcR5d69VFjS44Kn0jOd4eFhRae8dowsYQ8s7DtODx+bSYQhxjRiX39We9rfUrXL/aF3UHmK2lH2qbnEnHrosaXHBTjmgLhpVGEwCwviHQ1GI8zcbBrBpcZIAaBYOaNYVttawqHbPo3TyZNBJwVbQweZd64v/AUobA0YWFJ7g0Yqj0bmKLnEknjY9qdDP3ZdswZj9OBsw4tnEOk3Ki9ocMUWDV0jqosaXHBTiFsIYrPPaHEqTKDRgqjlZz2j5VcdnwZrNpv+F3bGs/KnEeXHGyAFZKazjpd62RY8TaVRNbTqmybEboI6pN+gS6pB7pXTyalrH7raO+613fdVk2/+TEHsH92hhxBMKutnB1j3bqruCozaz2jehGjCUPgL7YtcAQeCp9HrHhUnCR/gKLGlxwQidIrPh3HvGA48VODE+HKuC4+lakQRvVQWbBd81KceJ8NUoTA3da1XCZyrYw+VbGHyrYw+VbGHyrYw+VbGHyrYw+VbGHyrYw+VbGHyrYw+VbGHyrYw+VbGHyrYw+VbGHyrYw+VbGHyrYw+VbGHyrYw+VbGHyrYw+VbJnKqgB/oA//EACsQAQABAQUGBwEBAQAAAAAAAAERACExQVFxIDBhkfDxEECBobHB0eFQkP/aAAgBAQABPyH/AIGe940hA9RV7DQUgSh0/wAuP/4r6nhDNsVcI9V9cppcU2svijKLMa9hTI96sIvSVQehEnOiancqT/FiIcDF0KkON9q/KYLd6pd3oRZvpEaJ/JR9huVOwzXTuuPnsmCepNMkHF39n8YvwVg7Xp+M/G9NoemPOrl0fNkCAWq4Uqhc4v8APkibgtEwo5MucP8AusPXHyNAVWRdeM+lSLbn6Nv75pQJWCmdg1oxfnlbBevaKBtbmcKZaLb0a+aQnRHlVzx0xXzGl4IHsX6/HvSASRtPMI6uCTDnTTWqbZ8oStA6nAocp+/F8YrLZWj2qYm2T6WeW4sKWK6EDSut+FdOyZlX8fiOTXHQCx/KbEN4I34hbuCWo/VAflomYLAMNix2Ww1Lfqp34B9e3lJGI6Bq1IGUTbzriSyTZm3opRy0g6JTBV82WqY6m84F+E1GE1L8VxGHE+u02kNOcx9u368lZVMDHRSyrnVrq7oUZGEptdj331q6vXRS7vWSkXjV+le7C/ymvPT76tlPouqG6YCDc5ZXp2J+/I/LdH8pDNLsgyN4W2FQPFF7lUc6wg5FcwgM74XHxED5PJ/tBrY1wnWkAREcTfKNYXM2VSAuQGRvLskvaAQcGfGXkLm6TXhWHU98fnx08Hx+eAa3xWioQPH+jPeuvuFzd5mBGSftfJxXF8jI2eWsOs9gaQnu8SSAZEwoJGLvXv3c4sWfgYvWe8mPOAq38b8xn5FFYbHjZ0SdVhOWLz+NjoGTsCjIw1hcr8ue6j5s4647wEHpS+RjNKn5YUBhSckHA2HYzefh2Uwh5KuE2YyctwF1mVW76lvLHbSeptfIBBJKtWYnvdq4JefBsw5/kO+1Kezn8euG443e9Z97zJBzn5AolaM2s/u1BWhsvVG1BXF1XttOXgrpjRaSbfSMzeRtsu/ncyWF7+VdWFzdSfSXrcCiwCgDDahtlR0Fht59RHUs2zPBfg3ky3Kee9bBd6oChhtHEPgptaWUytTO1n8jjQ9yWBtRCwXru4ZlwR7tvX9yW720aXmsd0zG70gqaZ6L+qkKGBsHp4Nk/v6f2iw2YG3f8s9cW4HM+TbJ7YSGr4ZeTeBEST9G3xLYoqUMpD7qUA83sVP/APFd4G3G4FRMWFga57grnfoZ7nrMm373EIT6zo3iUIiXJQ1wsFd/fgRJvCKuhmUn8rA9T6CrDschHvfXGeSl8RyDgJqF9b38VEQ4uLq7iLWE/s8KmlG13FwWBQhQEG4jBPPsqbLHeXgGpVmAi6WlVKq7HCfQlqMcxL6qBV8juVoiZuG5DeqKAJS5XwVbY2U2u5VSs7NW6xKFzot3ZKhShbwFO3nAVMJUSuXhwQ4JqEWM0vKrZXQTkVFfJRKuAdHa90GFdDRpV0U4QPepYJzbVahmbom1EAY0dk4zPdIdhhKXyWrNP3dOPMrTh4TSElvHHwhsZSilVlt2LwJpQiQ6d913vQ0I1d+5GqN4konMcyo8Zrosf7uW2zV7tVJQBvYn381GILV62UAEBBvb0uyKVV49tNM6WsC8S0/wC7DcCnIN+YTXPyMIdwuD1pLZfXeVckZ/lU+RknmkIRcirhBmYe9JJ0POoFDFxfXyoEATjV5HUV2RXZFdkV2RXZFdkV2RXZFdkV2RXZFdkV2RXZFdkV2RXZFdkV2RXZFdkV2RXZFBMhuij4I4H/AD/9oADAMBAAIAAwAAABDzzzzzzzzzzzzzzzzzzzzzzzzzzzzzzzzzzzzzzzzzzzzzzzzzzzzzzzzzzzzzzzzzzzzzzzzzzzzzzzzzzzzzzzzzzzzzzzzzzzzzzzzzzzzzzzzzzzzzzzzzzzzzzzzzzzzzzzP7ZjPrzzzzzzzzzzzzzzzzz5//AM888958/wB/PPPPPPPPPPPNXfPPPPPPPGbPPPPPPPPPPPPOlPPPPPPPPPPn8/PPPPPPPPP8zfg/vPPPPN/nPA/PPPPPPPIP/PPPK9L3XDvvPNqefPPPPPOffPPPOLPPPPPPPO3bfEfPPPPH/PPPPJfPPPPPPP1PKvLMvPPLH/PPPPf/ADzzzzz/AF98t88q888s888885888888/DH889888088q/8APPPPN/PPsVkL/PO9vPPPfPPGPPPPPMfH6MlffPNRfPPKXPPPOfPPPPLvAX28trzffPPPBfPPPPDt/PPD3PPPPPPPPPPP5XPPPPPPLfPPffffffffffeVTvPPPPPPPPPPPPPPPPPPPPPPPPPPPPPPPPPPPPPPPPPPPPPPPPPPPPPPPPPPPPPPPPPPPPPPPPPPPPPPPPPPPPPPPPPPPPPPPPPPPPPPPPPPPPPPPPPPPPPPPPPPPPPPPPP/xAApEQEAAgEDAwMDBQEAAAAAAAABABExICFBEDBRYXGhcNHxQIGRseHw/9oACAEDAQE/EPoPlEFhcXx8oPn5R2Spnl/or0psewmdIo2TbNxDbNodnMGyzu3h7Wi8ERODB95S3xt3CZS5u0j4P7gAUT3fv2ibVQeFx4AisJnB3fyfeJlqwSb7vevv/bsjsbsYtXq3Kq955IOVYD5mMjGgbPBhFq9e688RVbdKOmYDbu9jBZce8FAguCK1PVuq18G2rfGXsKBbE8JjSPMBouPDUFtQABrUC2cLoADpQutBofCdSous+1ONXiF6nXB+/QrHp1uDzEpp1GT1Wpyd+02w1LB8wijPUEgyrnQaD0NG7cOp64DiMZtE91zg695vTuACjqfainpoodIPKiO2dIyYQgYQmF/E45n/AFf+Sv5Sv5R4I5yvaKrbpq8jqI9Y3Q0UA7dwLxEv4OwApmG2i+Ph3gAAAAAAYl9Av//EACoRAAECAwYGAwEBAAAAAAAAAAEAESExQSBRYXGR4RAwgaGx0cHw8XBA/9oACAECAQE/EP4PKwfblNo9kaXdsi17tlKJHdB3Af8AE6ZlRB3+5IkkubJCcmKqgL67oUO4QRVE/qADjm18UF6fdyaJai9EAWYQHz9+EUIM4NNuYZygjfpYDlFBC8kAABJYTMHzynQMFBiHsqMO/tTGdP1HIE9R7HdHNjaOM54VfF1N1Lhml/TzyRE/wzToHNqLhgxhuj+sIVC7IOZJ67KOAesfKAADDiC6EgRqBQB3LY3xNJEMkcmyBDclDRF8MvfIiQmYDMpqCiaf2acixQiEC9fvad2kIC0KoGWW/IADmSKXBDO/gTZPErrB3FjBEEol4myQAVQRBIWwA5khXqr8ckFSRwzUw78TarlY7I+LRgo3i29i6VQ6GF3tMuZTPF8hzPx82HuqB44vt4MiCTG0GuyOfEkAOVOHHCOyhoNjVOURvJTSmqeJtJCK5hsME3DxYKQJRe7VBtQhN5ypSQMh7RKMVKGDGG6j5uuogrDDi8i6VUbQCQsFEVP6gGsEJzpmiIbEWR0cmqk+gqOm6m+FIgddkL/dsvsOyI07tkZJHV/ShkGX10QnJjZIwxMst7T6kFfabx6sP+gcwAksEZwHIe/XIGsOFFnZEXY3WD0WD0WD0WD0WD0WD0WD0WD0WD0WD0WD0WD0QNfIN7V5F9f4F//EACsQAQABAQYFBQEAAwEAAAAAAAERACExQVFhgTBxkaHBECBAsfDRUOHxkP/aAAgBAQABPxD/AMDC5BzI+6lA8g+aEUMvkeahhc1P+LkMt0I8he7UkKrnn+3sUmmTRWOcu0UsxL/okxSURVvX1MmmQaSI4XLLaRTZiq2ncs7UvIfOeT7Qq75Yqbn+Fmcd5auQWtW8lZCC+u7nTw9lVN3h50YuuYud6RGV0pPtOZ0oRAyIH2QM4frCzymDmPnIQHarX0zdjW6r7S7y8jI0OPKajNo5nlfrQwICb61WDuetylSMiqU8x0CrrSBlJMbXfLJuKhAC9WrWYh2ZoZdz2+E+rxeFGI02ubjGg5djzvFYjBF9xoLcb5UBg8UBsevQFTPKAbTvDb5SIAEqsAVEQEq4x5MM78viCiIolyVYnGdLAsH701aKqFAgERBtU1IBYSKfQ3+VZlqWzsfvpn8UebDXP9hcCi7jgzWKuK+iPAmFyjA3ktD4DEMRu+RY5cVCYtAt5wY0iwC1auM6/EeJDENw4vY7V1q4vFMVz9TkRaGTjuOtWkmu5cOwO/xlpBeIG7SyPS8/oUixXWWJIhBSMl0CO1ZdqSJ9ohHo3upV9zlEdeOl9YQTYqYkUwFtfR1wo9EgUAyD2QpaA4tiOsKn9dPkh+nX4iCdgkFOibS6U4os1HVW9IqTjY59X2zq0yzB5hfQo0uhztg7W0cBEPA6ANQzjiE33Fo5xdS98NUfe53qc0SL7nq15Xe4CAIkI40itC/ZqH7n8J6K4O1shjSyRYWB73K7nwibkSIwjSUW99gUi5/QFQ8KWP6BQsi5D7a/eS0VO2bjIeyqzhZye58UkCOMhPKB1mgN3I4bHBwKhugPg1gAiA2vNyGLSrrENkGBxAoBVsAxosd8JEaX+sUOgV956WnVaLJAwTqiXjDl2Y4KAv3G3rcGvpmj4UjlgAC4oFkc4oawSJInGsSDAtq3D9YS1N+1gckGAcS1GyKGr4vaP8RaaR0f9a/AXYmQmJYbmDehNTP9R7y9QbNPWxeieiSZewwdSKfiElV+asHfTiqgVRLn5cNA14kh2IkkyjNYH8oQJN1imK/BswLYuYTLkdxl7BZ1sBz/AI+oHhJQouRwacLS02GQcvtzv4TTyWFth+pjZxEdD658VAWFytW/+NA+CdmQZjmaF/QxqSxlpqWdz2BFEFENPYgEAyIwjToBvRt8ox68JpDBFufOWNuIKtlb4MfUhu/BEHPLiuAGK5VL5DK0Fq84xxXlQcyRYAQewyeFEZh/r9sYX0wcx0SR50/1jtLcRajJwO1pAEv1TkSBzVl4h2WN+IvX4E77TWB+wqOzq2b37nt1VXgAQlt4c2LsYe05S2M5A9xbBJnbhYNyHdwHFY+1OJA8TyAQPb4ABitW9cgxdKgu1kt/2P11VJns2sDHk7vJ9xIJAdCH6PcRBCAY3BuKUgEESRMfekMUEXXiRc2DuYd4495BD95yau01jUxZC0M829qH4qOx8r6NpLuo6AFx7ilA0ztjoHvVVVKOIS7j73QXLeh54goAXHIE9uKEoZMBqtGHwLAOd9vSknBKkarR5F3C/wCz6dBh8i+9q6+4eaKN1JyJduAC4K5SefehRKEM3/VxQiw2zZ3DwjY7IIc1ok82CkX72Qa1A0WekPlf6DNfSyPGP+NCQ/CwB7wEUlJct7aI2c+AgqILmvvAklgzEhqROYyXyieJaKm1sIW7gI1Nfe2A7zjq0YD8ydUHSayFr56x0ayILKnIXG3oh+70eehrS8a2nb5TtzoAAAAuD3ujzAl90/zryaVVVVb14DLEKIc7wJYrEqXWAnSW7xFoMKIRMSjFQJRl24aMcMvTXMn2rUyAcT3Md1JaHT9zrU3auDj+M6UI17U3fW7CQ1OxSZqWyC827u5VPgri3XS14D5NiB/4fbDR+MwnYMg4BXNxVysTUAYSyAg4B7yhifYk3MqCkESxHDhgrBa0+DbdITQB2YAiMr7tKeuF6sr7BCfc1NipE3bY3ol6hUMnv8V5FZs8BJ1XF1eBdY5QHWpxtY2Y1S/m9KboFqk1eDiOeSxBDoS9OE7RbJFmLte5zpww8XPKJtBjn0obWwzDmZOpQlDr8nJDqIm3oET8eu1D5HX0zHVKgirKl0g7rWmDAe1S1h3wMe6SsC+OHVo1VReSOkqHTDTNbwe1ErK6y+sHZrK/irHIuNuEbUhkqWAKizKQMS/YsDQ4QJ5hfrHWh7QYNmU6MT+8IwIVhvYrUZNvSCBRmZmo2mOY+mibi6JikCKb1fYgqrfKKmDsxDX6TzSoiw3j/SoAXJHjuMilkwcR9dcuIFC1ickmCUiUmNkHLR04LtM5LIzjB1IaHBkIIc0ptFKqqqt6/JTiiEtyqfrytoEACACAOKWNomhKVVfPXRuaNvOkG/CwmSP+AbVcSi0UB7Ha+rFpdzoAAAAuD4EH8Ig2At2o6GMAh/WlLsMwYxnejeok3ih7/KJudwStMCl0lnMJ2qEWL0L9Fn0b1JrLgnmK13+LoKoSUtKpinxX7fxX7fxX7fxX7fxX7fxX7fxX7fxX7fxX7fxX7fxX7fxX7fxX7fxX7fxX7fxX7fxX7fxX7fxX7fxX7fxX7fxX7fxX7fxRYUuQ36rQRRB2/wDAD//Z;" vertex="1" parent="1">
                    <mxGeometry x="416.75" y="206.75" width="186.5" height="186.5" as="geometry"/>
                </mxCell>
                <mxCell id="50" value="" style="rounded=0;whiteSpace=wrap;html=1;" vertex="1" parent="1">
                    <mxGeometry x="450" y="1100" width="120" height="60" as="geometry"/>
                </mxCell>
            </root>
        </mxGraphModel>
    </diagram>
</mxfile>